# xmcd
# 
# Track frame offsets:
#     150
#     12016
#     23665
#     38039
#     47872
#     58969
#     69878
# 
# Disc length: 1063
# 
# Revision: 0
# Processed by: cddbd v1.5.2PL0 Copyright (c) Steve Scherf et al.
# Submitted via: BonkEnc v1.0.8
# 
DISCID=51042507
DTITLE=Branded Lonesome - The Bluebird Cafe
DYEAR=1996
DGENRE=Country
TTITLE0=I'm Gonna Swing
TTITLE1=Hurtin' Time
TTITLE2=Gabriella
TTITLE3=Careful With My Heart
TTITLE4=Girls In Texas
TTITLE5=Here Comes The Bride
TTITLE6=Long Gone
EXTD=
EXTT0=
EXTT1=
EXTT2=
EXTT3=
EXTT4=
EXTT5=
EXTT6=
PLAYORDER=
